<?xml version="1.0" standalone="no"?>
<!DOCTYPE svg PUBLIC "-//W3C//DTD SVG 20010904//EN"
 "http://www.w3.org/TR/2001/REC-SVG-20010904/DTD/svg10.dtd">
<svg version="1.0" xmlns="http://www.w3.org/2000/svg"
 width="50.000000pt" height="50.000000pt" viewBox="0 0 50.000000 50.000000"
 preserveAspectRatio="xMidYMid meet">

<g transform="translate(0.000000,50.000000) scale(0.100000,-0.100000)"
fill="#000000" stroke="none">
<path d="M156 340 l-161 -160 16 -27 c13 -25 20 -28 56 -25 34 3 44 -1 53 -18
6 -12 8 -34 5 -50 -5 -23 -2 -32 19 -45 18 -12 30 -14 43 -6 25 13 313 305
313 317 0 5 -7 20 -16 32 -13 18 -22 21 -48 16 -45 -8 -69 16 -60 61 5 27 2
36 -17 49 -13 9 -28 16 -33 16 -5 0 -82 -72 -170 -160z m191 129 c7 -7 9 -25
6 -41 -8 -42 30 -82 74 -75 21 4 36 1 44 -9 10 -12 -14 -41 -144 -171 -131
-132 -158 -155 -171 -144 -10 8 -13 23 -9 45 7 47 -26 80 -73 73 -22 -4 -37
-1 -45 9 -11 13 12 40 142 170 85 84 156 154 160 154 3 0 10 -5 16 -11z"/>
<path d="M286 392 c-3 -6 -1 -14 5 -17 15 -10 25 3 12 16 -7 7 -13 7 -17 1z"/>
<path d="M326 352 c-3 -6 1 -15 8 -21 8 -7 17 -8 20 -3 3 6 -1 15 -8 21 -8 7
-17 8 -20 3z"/>
<path d="M372 299 c2 -7 10 -15 17 -17 8 -3 12 1 9 9 -2 7 -10 15 -17 17 -8 3
-12 -1 -9 -9z"/>
</g>
</svg>
