<?xml version="1.0" standalone="no"?>
<!DOCTYPE svg PUBLIC "-//W3C//DTD SVG 20010904//EN"
 "http://www.w3.org/TR/2001/REC-SVG-20010904/DTD/svg10.dtd">
<svg version="1.0" xmlns="http://www.w3.org/2000/svg"
 width="50.000000pt" height="50.000000pt" viewBox="0 0 50.000000 50.000000"
 preserveAspectRatio="xMidYMid meet">

<g transform="translate(0.000000,50.000000) scale(0.100000,-0.100000)"
fill="#000000" stroke="none">
<path d="M290 474 c-22 -19 -29 -32 -24 -46 5 -16 2 -19 -13 -14 -14 4 -47
-22 -138 -114 l-120 -120 16 -28 c13 -24 20 -27 56 -24 34 3 44 -1 53 -18 6
-12 9 -34 5 -50 -5 -22 -1 -31 17 -44 12 -9 27 -16 32 -16 5 0 62 53 128 117
91 90 117 121 112 136 -5 15 -2 18 14 13 14 -5 27 2 46 24 31 37 31 39 10 68
-13 18 -22 21 -48 16 -45 -8 -69 16 -60 61 5 27 2 36 -17 49 -30 21 -32 21
-69 -10z m18 -93 c3 -8 -1 -12 -9 -9 -7 2 -15 10 -17 17 -3 8 1 12 9 9 7 -2
15 -10 17 -17z m46 -53 c-3 -5 -12 -4 -20 3 -7 6 -11 15 -8 21 3 5 12 4 20 -3
7 -6 11 -15 8 -21z m44 -37 c3 -8 -1 -12 -9 -9 -7 2 -15 10 -17 17 -3 8 1 12
9 9 7 -2 15 -10 17 -17z"/>
</g>
</svg>
